<?xml version="1.0" encoding="utf-8" standalone="no"?>
<!DOCTYPE svg PUBLIC "-//W3C//DTD SVG 1.1//EN"
  "http://www.w3.org/Graphics/SVG/1.1/DTD/svg11.dtd">
<svg xmlns:xlink="http://www.w3.org/1999/xlink" width="617.555045pt" height="380.173658pt" viewBox="0 0 617.555045 380.173658" xmlns="http://www.w3.org/2000/svg" version="1.1">
 <metadata>
  <rdf:RDF xmlns:dc="http://purl.org/dc/elements/1.1/" xmlns:cc="http://creativecommons.org/ns#" xmlns:rdf="http://www.w3.org/1999/02/22-rdf-syntax-ns#">
   <cc:Work>
    <dc:type rdf:resource="http://purl.org/dc/dcmitype/StillImage"/>
    <dc:date>2026-01-23T15:36:33.971176</dc:date>
    <dc:format>image/svg+xml</dc:format>
    <dc:creator>
     <cc:Agent>
      <dc:title>Matplotlib v3.10.8, https://matplotlib.org/</dc:title>
     </cc:Agent>
    </dc:creator>
   </cc:Work>
  </rdf:RDF>
 </metadata>
 <defs>
  <style type="text/css">*{stroke-linejoin: round; stroke-linecap: butt}</style>
 </defs>
 <g id="figure_1">
  <g id="patch_1">
   <path d="M 0 380.173658 
L 617.555045 380.173658 
L 617.555045 0 
L 0 0 
z
" style="fill: #ffffff"/>
  </g>
  <g id="axes_1">
   <g id="patch_2">
    <path d="M 52.355045 339.84 
L 610.355045 339.84 
L 610.355045 7.2 
L 52.355045 7.2 
z
" style="fill: #ffffff"/>
   </g>
   <g id="FillBetweenPolyCollection_1">
    <defs>
     <path id="mbc24f7048c" d="M 77.887133 -42.459932 
L 77.887133 -40.333658 
L 78.367283 -40.333658 
L 78.847433 -40.333658 
L 79.327584 -40.333658 
L 79.807734 -40.333658 
L 80.287885 -40.333658 
L 80.768035 -40.333658 
L 81.248186 -40.333658 
L 81.728336 -40.333658 
L 82.208487 -40.333658 
L 82.688637 -40.333658 
L 83.168788 -40.333658 
L 83.648938 -40.333658 
L 84.129089 -40.333658 
L 84.609239 -40.333658 
L 85.08939 -40.333658 
L 85.56954 -40.333658 
L 86.049691 -40.333658 
L 86.529841 -40.333658 
L 87.009992 -40.333658 
L 87.490142 -40.333658 
L 87.970293 -40.333658 
L 88.450443 -40.333658 
L 88.930593 -40.333658 
L 89.410744 -40.333658 
L 89.890894 -40.333658 
L 90.371045 -40.333658 
L 90.851195 -40.333658 
L 91.331346 -40.333658 
L 91.811496 -40.333658 
L 92.291647 -40.333658 
L 92.771797 -40.333658 
L 93.251948 -40.333658 
L 93.732098 -40.333658 
L 94.212249 -40.333658 
L 94.692399 -40.333658 
L 95.17255 -40.333658 
L 95.6527 -40.333658 
L 96.132851 -40.333658 
L 96.613001 -40.333658 
L 97.093152 -40.333658 
L 97.573302 -40.333658 
L 98.053452 -40.333658 
L 98.533603 -40.333658 
L 99.013753 -40.333658 
L 99.493904 -40.333658 
L 99.974054 -40.333658 
L 100.454205 -40.333658 
L 100.934355 -40.333658 
L 101.414506 -40.333658 
L 101.894656 -40.333658 
L 102.374807 -40.333658 
L 102.854957 -40.333658 
L 103.335108 -40.333658 
L 103.815258 -40.333658 
L 104.295409 -40.333658 
L 104.775559 -40.333658 
L 105.25571 -40.333658 
L 105.73586 -40.333658 
L 106.216011 -40.333658 
L 106.696161 -40.333658 
L 107.176312 -40.333658 
L 107.656462 -40.333658 
L 108.136612 -40.333658 
L 108.616763 -40.333658 
L 109.096913 -40.333658 
L 109.577064 -40.333658 
L 110.057214 -40.333658 
L 110.537365 -40.333658 
L 111.017515 -40.333658 
L 111.497666 -40.333658 
L 111.977816 -40.333658 
L 112.457967 -40.333658 
L 112.938117 -40.333658 
L 113.418268 -40.333658 
L 113.898418 -40.333658 
L 114.378569 -40.333658 
L 114.858719 -40.333658 
L 115.33887 -40.333658 
L 115.81902 -40.333658 
L 116.299171 -40.333658 
L 116.779321 -40.333658 
L 117.259472 -40.333658 
L 117.739622 -40.333658 
L 118.219772 -40.333658 
L 118.699923 -40.333658 
L 119.180073 -40.333658 
L 119.660224 -40.333658 
L 120.140374 -40.333658 
L 120.620525 -40.333658 
L 121.100675 -40.333658 
L 121.580826 -40.333658 
L 122.060976 -40.333658 
L 122.541127 -40.333658 
L 123.021277 -40.333658 
L 123.501428 -40.333658 
L 123.981578 -40.333658 
L 124.461729 -40.333658 
L 124.941879 -40.333658 
L 125.42203 -40.333658 
L 125.90218 -40.333658 
L 126.382331 -40.333658 
L 126.862481 -40.333658 
L 127.342631 -40.333658 
L 127.822782 -40.333658 
L 128.302932 -40.333658 
L 128.783083 -40.333658 
L 129.263233 -40.333658 
L 129.743384 -40.333658 
L 130.223534 -40.333658 
L 130.703685 -40.333658 
L 131.183835 -40.333658 
L 131.663986 -40.333658 
L 132.144136 -40.333658 
L 132.624287 -40.333658 
L 133.104437 -40.333658 
L 133.584588 -40.333658 
L 134.064738 -40.333658 
L 134.544889 -40.333658 
L 135.025039 -40.333658 
L 135.50519 -40.333658 
L 135.98534 -40.333658 
L 136.465491 -40.333658 
L 136.945641 -40.333658 
L 137.425791 -40.333658 
L 137.905942 -40.333658 
L 138.386092 -40.333658 
L 138.866243 -40.333658 
L 139.346393 -40.333658 
L 139.826544 -40.333658 
L 140.306694 -40.333658 
L 140.786845 -40.333658 
L 141.266995 -40.333658 
L 141.747146 -40.333658 
L 142.227296 -40.333658 
L 142.707447 -40.333658 
L 143.187597 -40.333658 
L 143.667748 -40.333658 
L 144.147898 -40.333658 
L 144.628049 -40.333658 
L 145.108199 -40.333658 
L 145.58835 -40.333658 
L 146.0685 -40.333658 
L 146.54865 -40.333658 
L 147.028801 -40.333658 
L 147.508951 -40.333658 
L 147.989102 -40.333658 
L 148.469252 -40.333658 
L 148.949403 -40.333658 
L 149.429553 -40.333658 
L 149.909704 -40.333658 
L 150.389854 -40.333658 
L 150.870005 -40.333658 
L 151.350155 -40.333658 
L 151.830306 -40.333658 
L 152.310456 -40.333658 
L 152.790607 -40.333658 
L 153.270757 -40.333658 
L 153.750908 -40.333658 
L 154.231058 -40.333658 
L 154.711209 -40.333658 
L 155.191359 -40.333658 
L 155.67151 -40.333658 
L 156.15166 -40.333658 
L 156.63181 -40.333658 
L 157.111961 -40.333658 
L 157.592111 -40.333658 
L 158.072262 -40.333658 
L 158.552412 -40.333658 
L 159.032563 -40.333658 
L 159.512713 -40.333658 
L 159.992864 -40.333658 
L 160.473014 -40.333658 
L 160.953165 -40.333658 
L 161.433315 -40.333658 
L 161.913466 -40.333658 
L 162.393616 -40.333658 
L 162.873767 -40.333658 
L 163.353917 -40.333658 
L 163.834068 -40.333658 
L 164.314218 -40.333658 
L 164.794369 -40.333658 
L 165.274519 -40.333658 
L 165.754669 -40.333658 
L 166.23482 -40.333658 
L 166.71497 -40.333658 
L 167.195121 -40.333658 
L 167.675271 -40.333658 
L 168.155422 -40.333658 
L 168.635572 -40.333658 
L 169.115723 -40.333658 
L 169.595873 -40.333658 
L 170.076024 -40.333658 
L 170.556174 -40.333658 
L 171.036325 -40.333658 
L 171.516475 -40.333658 
L 171.996626 -40.333658 
L 172.476776 -40.333658 
L 172.956927 -40.333658 
L 173.437077 -40.333658 
L 173.437077 -40.333708 
L 173.437077 -40.333708 
L 172.956927 -40.338144 
L 172.476776 -40.335773 
L 171.996626 -40.33466 
L 171.516475 -40.333658 
L 171.036325 -40.333658 
L 170.556174 -40.333658 
L 170.076024 -40.333658 
L 169.595873 -40.333658 
L 169.115723 -40.333658 
L 168.635572 -40.333658 
L 168.155422 -40.333658 
L 167.675271 -40.333658 
L 167.195121 -40.333658 
L 166.71497 -40.333658 
L 166.23482 -40.333658 
L 165.754669 -40.333658 
L 165.274519 -40.333658 
L 164.794369 -40.333658 
L 164.314218 -40.333658 
L 163.834068 -40.333658 
L 163.353917 -40.333658 
L 162.873767 -40.333658 
L 162.393616 -40.333658 
L 161.913466 -40.333658 
L 161.433315 -40.333658 
L 160.953165 -40.333658 
L 160.473014 -40.333658 
L 159.992864 -40.333658 
L 159.512713 -40.333658 
L 159.032563 -40.333658 
L 158.552412 -40.333658 
L 158.072262 -40.333962 
L 157.592111 -40.337268 
L 157.111961 -40.333669 
L 156.63181 -40.337058 
L 156.15166 -40.334027 
L 155.67151 -40.334104 
L 155.191359 -40.336834 
L 154.711209 -40.333661 
L 154.231058 -40.333658 
L 153.750908 -40.333658 
L 153.270757 -40.333658 
L 152.790607 -40.333658 
L 152.310456 -40.333956 
L 151.830306 -40.337288 
L 151.350155 -40.333664 
L 150.870005 -40.333658 
L 150.389854 -40.333658 
L 149.909704 -40.333658 
L 149.429553 -40.333658 
L 148.949403 -40.333666 
L 148.469252 -40.337447 
L 147.989102 -40.333911 
L 147.508951 -40.333658 
L 147.028801 -40.334093 
L 146.54865 -40.336867 
L 146.0685 -40.333662 
L 145.58835 -40.333658 
L 145.108199 -40.333732 
L 144.628049 -40.338115 
L 144.147898 -40.333696 
L 143.667748 -40.333658 
L 143.187597 -40.333658 
L 142.707447 -40.333658 
L 142.227296 -40.334519 
L 141.747146 -40.335941 
L 141.266995 -40.334086 
L 140.786845 -40.336888 
L 140.306694 -40.335186 
L 139.826544 -40.335214 
L 139.346393 -40.341305 
L 138.866243 -40.33407 
L 138.386092 -40.333683 
L 137.905942 -40.338039 
L 137.425791 -40.341982 
L 136.945641 -40.337868 
L 136.465491 -40.338236 
L 135.98534 -40.333681 
L 135.50519 -40.333658 
L 135.025039 -40.333658 
L 134.544889 -40.333841 
L 134.064738 -40.337719 
L 133.584588 -40.340302 
L 133.104437 -40.334452 
L 132.624287 -40.334098 
L 132.144136 -40.341821 
L 131.663986 -40.341164 
L 131.183835 -40.333672 
L 130.703685 -40.334495 
L 130.223534 -40.33882 
L 129.743384 -40.334699 
L 129.263233 -40.345885 
L 128.783083 -40.337589 
L 128.302932 -40.333778 
L 127.822782 -40.33799 
L 127.342631 -40.336547 
L 126.862481 -40.338714 
L 126.382331 -40.335632 
L 125.90218 -40.339386 
L 125.42203 -40.346178 
L 124.941879 -40.341316 
L 124.461729 -40.33413 
L 123.981578 -40.33815 
L 123.501428 -40.339952 
L 123.021277 -40.341906 
L 122.541127 -40.337925 
L 122.060976 -40.336447 
L 121.580826 -40.343291 
L 121.100675 -40.334296 
L 120.620525 -40.334194 
L 120.140374 -40.34114 
L 119.660224 -40.342283 
L 119.180073 -40.343867 
L 118.699923 -40.343701 
L 118.219772 -40.3548 
L 117.739622 -40.341487 
L 117.259472 -40.333781 
L 116.779321 -40.338442 
L 116.299171 -40.335863 
L 115.81902 -40.333698 
L 115.33887 -40.338121 
L 114.858719 -40.334005 
L 114.378569 -40.34164 
L 113.898418 -40.345427 
L 113.418268 -40.351832 
L 112.938117 -40.370307 
L 112.457967 -40.349372 
L 111.977816 -40.345927 
L 111.497666 -40.347244 
L 111.017515 -40.352949 
L 110.537365 -40.343638 
L 110.057214 -40.349961 
L 109.577064 -40.347871 
L 109.096913 -40.369261 
L 108.616763 -40.363063 
L 108.136612 -40.351605 
L 107.656462 -40.364764 
L 107.176312 -40.351702 
L 106.696161 -40.349446 
L 106.216011 -40.36021 
L 105.73586 -40.367764 
L 105.25571 -40.373068 
L 104.775559 -40.369986 
L 104.295409 -40.399457 
L 103.815258 -40.373687 
L 103.335108 -40.373684 
L 102.854957 -40.39593 
L 102.374807 -40.387116 
L 101.894656 -40.374209 
L 101.414506 -40.378705 
L 100.934355 -40.41924 
L 100.454205 -40.397379 
L 99.974054 -40.412943 
L 99.493904 -40.433075 
L 99.013753 -40.421342 
L 98.533603 -40.431343 
L 98.053452 -40.452507 
L 97.573302 -40.436194 
L 97.093152 -40.484236 
L 96.613001 -40.447294 
L 96.132851 -40.474267 
L 95.6527 -40.521471 
L 95.17255 -40.484426 
L 94.692399 -40.570612 
L 94.212249 -40.617331 
L 93.732098 -40.619226 
L 93.251948 -40.651573 
L 92.771797 -40.741576 
L 92.291647 -40.72134 
L 91.811496 -40.786768 
L 91.331346 -40.851494 
L 90.851195 -40.975999 
L 90.371045 -41.153072 
L 89.890894 -41.122251 
L 89.410744 -41.366241 
L 88.930593 -41.461735 
L 88.450443 -41.607122 
L 87.970293 -41.8373 
L 87.490142 -42.076404 
L 87.009992 -42.460076 
L 86.529841 -42.86584 
L 86.049691 -43.474647 
L 85.56954 -43.838517 
L 85.08939 -44.811125 
L 84.609239 -46.051903 
L 84.129089 -47.570761 
L 83.648938 -49.478486 
L 83.168788 -52.342567 
L 82.688637 -56.222693 
L 82.208487 -61.905227 
L 81.728336 -70.393562 
L 81.248186 -83.945528 
L 80.768035 -105.685269 
L 80.287885 -139.144582 
L 79.807734 -191.051196 
L 79.327584 -266.041182 
L 78.847433 -357.133658 
L 78.367283 -321.682251 
L 77.887133 -42.459932 
z
" style="stroke: #1f77b4"/>
    </defs>
    <g clip-path="url(#p953095f358)">
     <use xlink:href="#mbc24f7048c" x="0" y="380.173658" style="fill: #1f77b4; fill-opacity: 0.25; stroke: #1f77b4"/>
    </g>
   </g>
   <g id="FillBetweenPolyCollection_2">
    <defs>
     <path id="mf32a0b95c0" d="M 77.831657 -42.744981 
L 77.831657 -40.333658 
L 79.11474 -40.333658 
L 80.397823 -40.333658 
L 81.680906 -40.333658 
L 82.963989 -40.333658 
L 84.247072 -40.333658 
L 85.530156 -40.333658 
L 86.813239 -40.333658 
L 88.096322 -40.333658 
L 89.379405 -40.333658 
L 90.662488 -40.333658 
L 91.945571 -40.333658 
L 93.228654 -40.333658 
L 94.511737 -40.333658 
L 95.79482 -40.333658 
L 97.077903 -40.333658 
L 98.360987 -40.333658 
L 99.64407 -40.333658 
L 100.927153 -40.333658 
L 102.210236 -40.333658 
L 103.493319 -40.333658 
L 104.776402 -40.333658 
L 106.059485 -40.333658 
L 107.342568 -40.333658 
L 108.625651 -40.333658 
L 109.908734 -40.333658 
L 111.191818 -40.333658 
L 112.474901 -40.333658 
L 113.757984 -40.333658 
L 115.041067 -40.333658 
L 116.32415 -40.333658 
L 117.607233 -40.333658 
L 118.890316 -40.333658 
L 120.173399 -40.333658 
L 121.456482 -40.333658 
L 122.739565 -40.333658 
L 124.022649 -40.333658 
L 125.305732 -40.333658 
L 126.588815 -40.333658 
L 127.871898 -40.333658 
L 129.154981 -40.333658 
L 130.438064 -40.333658 
L 131.721147 -40.333658 
L 133.00423 -40.333658 
L 134.287313 -40.333658 
L 135.570396 -40.333658 
L 136.85348 -40.333658 
L 138.136563 -40.333658 
L 139.419646 -40.333658 
L 140.702729 -40.333658 
L 141.985812 -40.333658 
L 143.268895 -40.333658 
L 144.551978 -40.333658 
L 145.835061 -40.333658 
L 147.118144 -40.333658 
L 148.401227 -40.333658 
L 149.684311 -40.333658 
L 150.967394 -40.333658 
L 152.250477 -40.333658 
L 153.53356 -40.333658 
L 154.816643 -40.333658 
L 156.099726 -40.333658 
L 157.382809 -40.333658 
L 158.665892 -40.333658 
L 159.948975 -40.333658 
L 161.232058 -40.333658 
L 162.515142 -40.333658 
L 163.798225 -40.333658 
L 165.081308 -40.333658 
L 166.364391 -40.333658 
L 167.647474 -40.333658 
L 168.930557 -40.333658 
L 170.21364 -40.333658 
L 171.496723 -40.333658 
L 172.779806 -40.333658 
L 174.062889 -40.333658 
L 175.345973 -40.333658 
L 176.629056 -40.333658 
L 177.912139 -40.333658 
L 179.195222 -40.333658 
L 180.478305 -40.333658 
L 181.761388 -40.333658 
L 183.044471 -40.333658 
L 184.327554 -40.333658 
L 185.610637 -40.333658 
L 186.89372 -40.333658 
L 188.176804 -40.333658 
L 189.459887 -40.333658 
L 190.74297 -40.333658 
L 192.026053 -40.333658 
L 193.309136 -40.333658 
L 194.592219 -40.333658 
L 195.875302 -40.333658 
L 197.158385 -40.333658 
L 198.441468 -40.333658 
L 199.724551 -40.333658 
L 201.007635 -40.333658 
L 202.290718 -40.333658 
L 203.573801 -40.333658 
L 204.856884 -40.333658 
L 206.139967 -40.333658 
L 207.42305 -40.333658 
L 208.706133 -40.333658 
L 209.989216 -40.333658 
L 211.272299 -40.333658 
L 212.555382 -40.333658 
L 213.838466 -40.333658 
L 215.121549 -40.333658 
L 216.404632 -40.333658 
L 217.687715 -40.333658 
L 218.970798 -40.333658 
L 220.253881 -40.333658 
L 221.536964 -40.333658 
L 222.820047 -40.333658 
L 224.10313 -40.333658 
L 225.386213 -40.333658 
L 226.669297 -40.333658 
L 227.95238 -40.333658 
L 229.235463 -40.333658 
L 230.518546 -40.333658 
L 231.801629 -40.333658 
L 233.084712 -40.333658 
L 234.367795 -40.333658 
L 235.650878 -40.333658 
L 236.933961 -40.333658 
L 238.217044 -40.333658 
L 239.500128 -40.333658 
L 240.783211 -40.333658 
L 242.066294 -40.333658 
L 243.349377 -40.333658 
L 244.63246 -40.333658 
L 245.915543 -40.333658 
L 247.198626 -40.333658 
L 248.481709 -40.333658 
L 249.764792 -40.333658 
L 251.047875 -40.333658 
L 252.330959 -40.333658 
L 253.614042 -40.333658 
L 254.897125 -40.333658 
L 256.180208 -40.333658 
L 257.463291 -40.333658 
L 258.746374 -40.333658 
L 260.029457 -40.333658 
L 261.31254 -40.333658 
L 262.595623 -40.333658 
L 263.878706 -40.333658 
L 265.16179 -40.333658 
L 266.444873 -40.333658 
L 267.727956 -40.333658 
L 269.011039 -40.333658 
L 270.294122 -40.333658 
L 271.577205 -40.333658 
L 272.860288 -40.333658 
L 274.143371 -40.333658 
L 275.426454 -40.333658 
L 276.709537 -40.333658 
L 277.992621 -40.333658 
L 279.275704 -40.333658 
L 280.558787 -40.333658 
L 281.84187 -40.333658 
L 283.124953 -40.333658 
L 284.408036 -40.333658 
L 285.691119 -40.333658 
L 286.974202 -40.333658 
L 288.257285 -40.333658 
L 289.540368 -40.333658 
L 290.823452 -40.333658 
L 292.106535 -40.333658 
L 293.389618 -40.333658 
L 294.672701 -40.333658 
L 295.955784 -40.333658 
L 297.238867 -40.333658 
L 298.52195 -40.333658 
L 299.805033 -40.333658 
L 301.088116 -40.333658 
L 302.371199 -40.333658 
L 303.654283 -40.333658 
L 304.937366 -40.333658 
L 306.220449 -40.333658 
L 307.503532 -40.333658 
L 308.786615 -40.333658 
L 310.069698 -40.333658 
L 311.352781 -40.333658 
L 312.635864 -40.333658 
L 313.918947 -40.333658 
L 315.20203 -40.333658 
L 316.485114 -40.333658 
L 317.768197 -40.333658 
L 319.05128 -40.333658 
L 320.334363 -40.333658 
L 321.617446 -40.333658 
L 322.900529 -40.333658 
L 324.183612 -40.333658 
L 325.466695 -40.333658 
L 326.749778 -40.333658 
L 328.032861 -40.333658 
L 329.315945 -40.333658 
L 330.599028 -40.333658 
L 331.882111 -40.333658 
L 333.165194 -40.333658 
L 333.165194 -40.333703 
L 333.165194 -40.333703 
L 331.882111 -40.333659 
L 330.599028 -40.333658 
L 329.315945 -40.333658 
L 328.032861 -40.333658 
L 326.749778 -40.333658 
L 325.466695 -40.333658 
L 324.183612 -40.333658 
L 322.900529 -40.333658 
L 321.617446 -40.333658 
L 320.334363 -40.333658 
L 319.05128 -40.333658 
L 317.768197 -40.333658 
L 316.485114 -40.333658 
L 315.20203 -40.333658 
L 313.918947 -40.333658 
L 312.635864 -40.333658 
L 311.352781 -40.333658 
L 310.069698 -40.333658 
L 308.786615 -40.333658 
L 307.503532 -40.333658 
L 306.220449 -40.333658 
L 304.937366 -40.333658 
L 303.654283 -40.333658 
L 302.371199 -40.333658 
L 301.088116 -40.333658 
L 299.805033 -40.333658 
L 298.52195 -40.333658 
L 297.238867 -40.333658 
L 295.955784 -40.333658 
L 294.672701 -40.333658 
L 293.389618 -40.333658 
L 292.106535 -40.333658 
L 290.823452 -40.333658 
L 289.540368 -40.333658 
L 288.257285 -40.333658 
L 286.974202 -40.333658 
L 285.691119 -40.333658 
L 284.408036 -40.333658 
L 283.124953 -40.333658 
L 281.84187 -40.333658 
L 280.558787 -40.333658 
L 279.275704 -40.333658 
L 277.992621 -40.333658 
L 276.709537 -40.333658 
L 275.426454 -40.333658 
L 274.143371 -40.333658 
L 272.860288 -40.333658 
L 271.577205 -40.333658 
L 270.294122 -40.333658 
L 269.011039 -40.333658 
L 267.727956 -40.333658 
L 266.444873 -40.333658 
L 265.16179 -40.333658 
L 263.878706 -40.333658 
L 262.595623 -40.333658 
L 261.31254 -40.333658 
L 260.029457 -40.333658 
L 258.746374 -40.333658 
L 257.463291 -40.333658 
L 256.180208 -40.333658 
L 254.897125 -40.333658 
L 253.614042 -40.333658 
L 252.330959 -40.333658 
L 251.047875 -40.333658 
L 249.764792 -40.333658 
L 248.481709 -40.333658 
L 247.198626 -40.333658 
L 245.915543 -40.333658 
L 244.63246 -40.333658 
L 243.349377 -40.333658 
L 242.066294 -40.333658 
L 240.783211 -40.333658 
L 239.500128 -40.333658 
L 238.217044 -40.333658 
L 236.933961 -40.333658 
L 235.650878 -40.333658 
L 234.367795 -40.333658 
L 233.084712 -40.333658 
L 231.801629 -40.333658 
L 230.518546 -40.333658 
L 229.235463 -40.333658 
L 227.95238 -40.333658 
L 226.669297 -40.333658 
L 225.386213 -40.333658 
L 224.10313 -40.333658 
L 222.820047 -40.333702 
L 221.536964 -40.333659 
L 220.253881 -40.333658 
L 218.970798 -40.333658 
L 217.687715 -40.333658 
L 216.404632 -40.333658 
L 215.121549 -40.333658 
L 213.838466 -40.333658 
L 212.555382 -40.333659 
L 211.272299 -40.333745 
L 209.989216 -40.337532 
L 208.706133 -40.333658 
L 207.42305 -40.333658 
L 206.139967 -40.333658 
L 204.856884 -40.333658 
L 203.573801 -40.336075 
L 202.290718 -40.333658 
L 201.007635 -40.333912 
L 199.724551 -40.33372 
L 198.441468 -40.333658 
L 197.158385 -40.333658 
L 195.875302 -40.336164 
L 194.592219 -40.333658 
L 193.309136 -40.333716 
L 192.026053 -40.333659 
L 190.74297 -40.336126 
L 189.459887 -40.340457 
L 188.176804 -40.333658 
L 186.89372 -40.333658 
L 185.610637 -40.333658 
L 184.327554 -40.333658 
L 183.044471 -40.333658 
L 181.761388 -40.333658 
L 180.478305 -40.335556 
L 179.195222 -40.333658 
L 177.912139 -40.333658 
L 176.629056 -40.333658 
L 175.345973 -40.333658 
L 174.062889 -40.335055 
L 172.779806 -40.336184 
L 171.496723 -40.333659 
L 170.21364 -40.333705 
L 168.930557 -40.337569 
L 167.647474 -40.333658 
L 166.364391 -40.336492 
L 165.081308 -40.344567 
L 163.798225 -40.337602 
L 162.515142 -40.340861 
L 161.232058 -40.333658 
L 159.948975 -40.333807 
L 158.665892 -40.333658 
L 157.382809 -40.340559 
L 156.099726 -40.333658 
L 154.816643 -40.336245 
L 153.53356 -40.333672 
L 152.250477 -40.333669 
L 150.967394 -40.337563 
L 149.684311 -40.338816 
L 148.401227 -40.333664 
L 147.118144 -40.333658 
L 145.835061 -40.336216 
L 144.551978 -40.355666 
L 143.268895 -40.337829 
L 141.985812 -40.340801 
L 140.702729 -40.337568 
L 139.419646 -40.336979 
L 138.136563 -40.335334 
L 136.85348 -40.333658 
L 135.570396 -40.338766 
L 134.287313 -40.336605 
L 133.00423 -40.341254 
L 131.721147 -40.337595 
L 130.438064 -40.335078 
L 129.154981 -40.343971 
L 127.871898 -40.345901 
L 126.588815 -40.333678 
L 125.305732 -40.335352 
L 124.022649 -40.34187 
L 122.739565 -40.346552 
L 121.456482 -40.33366 
L 120.173399 -40.347807 
L 118.890316 -40.358336 
L 117.607233 -40.342811 
L 116.32415 -40.368039 
L 115.041067 -40.358861 
L 113.757984 -40.356255 
L 112.474901 -40.347369 
L 111.191818 -40.350869 
L 109.908734 -40.368374 
L 108.625651 -40.357727 
L 107.342568 -40.362479 
L 106.059485 -40.376725 
L 104.776402 -40.360201 
L 103.493319 -40.389247 
L 102.210236 -40.382855 
L 100.927153 -40.402793 
L 99.64407 -40.412782 
L 98.360987 -40.412327 
L 97.077903 -40.454427 
L 95.79482 -40.470449 
L 94.511737 -40.569016 
L 93.228654 -40.594368 
L 91.945571 -40.669684 
L 90.662488 -40.833556 
L 89.379405 -41.009653 
L 88.096322 -41.321277 
L 86.813239 -41.786683 
L 85.530156 -42.940084 
L 84.247072 -44.785251 
L 82.963989 -49.508427 
L 81.680906 -63.234902 
L 80.397823 -113.271058 
L 79.11474 -340.764788 
L 77.831657 -42.744981 
z
" style="stroke: #ff7f0e"/>
    </defs>
    <g clip-path="url(#p953095f358)">
     <use xlink:href="#mf32a0b95c0" x="0" y="380.173658" style="fill: #ff7f0e; fill-opacity: 0.25; stroke: #ff7f0e"/>
    </g>
   </g>
   <g id="FillBetweenPolyCollection_3">
    <defs>
     <path id="m7c823061ea" d="M 77.718682 -41.410188 
L 77.718682 -40.333658 
L 80.267791 -40.333658 
L 82.8169 -40.333658 
L 85.366009 -40.333658 
L 87.915119 -40.333658 
L 90.464228 -40.333658 
L 93.013337 -40.333658 
L 95.562446 -40.333658 
L 98.111555 -40.333658 
L 100.660664 -40.333658 
L 103.209774 -40.333658 
L 105.758883 -40.333658 
L 108.307992 -40.333658 
L 110.857101 -40.333658 
L 113.40621 -40.333658 
L 115.95532 -40.333658 
L 118.504429 -40.333658 
L 121.053538 -40.333658 
L 123.602647 -40.333658 
L 126.151756 -40.333658 
L 128.700865 -40.333658 
L 131.249975 -40.333658 
L 133.799084 -40.333658 
L 136.348193 -40.333658 
L 138.897302 -40.333658 
L 141.446411 -40.333658 
L 143.995521 -40.333658 
L 146.54463 -40.333658 
L 149.093739 -40.333658 
L 151.642848 -40.333658 
L 154.191957 -40.333658 
L 156.741066 -40.333658 
L 159.290176 -40.333658 
L 161.839285 -40.333658 
L 164.388394 -40.333658 
L 166.937503 -40.333658 
L 169.486612 -40.333658 
L 172.035722 -40.333658 
L 174.584831 -40.333658 
L 177.13394 -40.333658 
L 179.683049 -40.333658 
L 182.232158 -40.333658 
L 184.781267 -40.333658 
L 187.330377 -40.333658 
L 189.879486 -40.333658 
L 192.428595 -40.333658 
L 194.977704 -40.333658 
L 197.526813 -40.333658 
L 200.075923 -40.333658 
L 202.625032 -40.333658 
L 205.174141 -40.333658 
L 207.72325 -40.333658 
L 210.272359 -40.333658 
L 212.821468 -40.333658 
L 215.370578 -40.333658 
L 217.919687 -40.333658 
L 220.468796 -40.333658 
L 223.017905 -40.333658 
L 225.567014 -40.333658 
L 228.116124 -40.333658 
L 230.665233 -40.333658 
L 233.214342 -40.333658 
L 235.763451 -40.333658 
L 238.31256 -40.333658 
L 240.861669 -40.333658 
L 243.410779 -40.333658 
L 245.959888 -40.333658 
L 248.508997 -40.333658 
L 251.058106 -40.333658 
L 253.607215 -40.333658 
L 256.156325 -40.333658 
L 258.705434 -40.333658 
L 261.254543 -40.333658 
L 263.803652 -40.333658 
L 266.352761 -40.333658 
L 268.90187 -40.333658 
L 271.45098 -40.333658 
L 274.000089 -40.333658 
L 276.549198 -40.333658 
L 279.098307 -40.333658 
L 281.647416 -40.333658 
L 284.196526 -40.333658 
L 286.745635 -40.333658 
L 289.294744 -40.333658 
L 291.843853 -40.333658 
L 294.392962 -40.333658 
L 296.942071 -40.333658 
L 299.491181 -40.333658 
L 302.04029 -40.333658 
L 304.589399 -40.333658 
L 307.138508 -40.333658 
L 309.687617 -40.333658 
L 312.236727 -40.333658 
L 314.785836 -40.333658 
L 317.334945 -40.333658 
L 319.884054 -40.333658 
L 322.433163 -40.333658 
L 324.982272 -40.333658 
L 327.531382 -40.333658 
L 330.080491 -40.333658 
L 332.6296 -40.333658 
L 335.178709 -40.333658 
L 337.727818 -40.333658 
L 340.276928 -40.333658 
L 342.826037 -40.333658 
L 345.375146 -40.333658 
L 347.924255 -40.333658 
L 350.473364 -40.333658 
L 353.022473 -40.333658 
L 355.571583 -40.333658 
L 358.120692 -40.333658 
L 360.669801 -40.333658 
L 363.21891 -40.333658 
L 365.768019 -40.333658 
L 368.317129 -40.333658 
L 370.866238 -40.333658 
L 373.415347 -40.333658 
L 375.964456 -40.333658 
L 378.513565 -40.333658 
L 381.062674 -40.333658 
L 383.611784 -40.333658 
L 386.160893 -40.333658 
L 388.710002 -40.333658 
L 391.259111 -40.333658 
L 393.80822 -40.333658 
L 396.35733 -40.333658 
L 398.906439 -40.333658 
L 401.455548 -40.333658 
L 404.004657 -40.333658 
L 406.553766 -40.333658 
L 409.102875 -40.333658 
L 411.651985 -40.333658 
L 414.201094 -40.333658 
L 416.750203 -40.333658 
L 419.299312 -40.333658 
L 421.848421 -40.333658 
L 424.397531 -40.333658 
L 426.94664 -40.333658 
L 429.495749 -40.333658 
L 432.044858 -40.333658 
L 434.593967 -40.333658 
L 437.143076 -40.333658 
L 439.692186 -40.333658 
L 442.241295 -40.333658 
L 444.790404 -40.333658 
L 447.339513 -40.333658 
L 449.888622 -40.333658 
L 452.437732 -40.333658 
L 454.986841 -40.333658 
L 457.53595 -40.333658 
L 460.085059 -40.333658 
L 462.634168 -40.333658 
L 465.183277 -40.333658 
L 467.732387 -40.333658 
L 470.281496 -40.333658 
L 472.830605 -40.333658 
L 475.379714 -40.333658 
L 477.928823 -40.333658 
L 480.477933 -40.333658 
L 483.027042 -40.333658 
L 485.576151 -40.333658 
L 488.12526 -40.333658 
L 490.674369 -40.333658 
L 493.223478 -40.333658 
L 495.772588 -40.333658 
L 498.321697 -40.333658 
L 500.870806 -40.333658 
L 503.419915 -40.333658 
L 505.969024 -40.333658 
L 508.518134 -40.333658 
L 511.067243 -40.333658 
L 513.616352 -40.333658 
L 516.165461 -40.333658 
L 518.71457 -40.333658 
L 521.263679 -40.333658 
L 523.812789 -40.333658 
L 526.361898 -40.333658 
L 528.911007 -40.333658 
L 531.460116 -40.333658 
L 534.009225 -40.333658 
L 536.558335 -40.333658 
L 539.107444 -40.333658 
L 541.656553 -40.333658 
L 544.205662 -40.333658 
L 546.754771 -40.333658 
L 549.30388 -40.333658 
L 551.85299 -40.333658 
L 554.402099 -40.333658 
L 556.951208 -40.333658 
L 559.500317 -40.333658 
L 562.049426 -40.333658 
L 564.598536 -40.333658 
L 567.147645 -40.333658 
L 569.696754 -40.333658 
L 572.245863 -40.333658 
L 574.794972 -40.333658 
L 577.344082 -40.333658 
L 579.893191 -40.333658 
L 582.4423 -40.333658 
L 584.991409 -40.333658 
L 584.991409 -40.333695 
L 584.991409 -40.333695 
L 582.4423 -40.333658 
L 579.893191 -40.333658 
L 577.344082 -40.333658 
L 574.794972 -40.333658 
L 572.245863 -40.333658 
L 569.696754 -40.333658 
L 567.147645 -40.333658 
L 564.598536 -40.333658 
L 562.049426 -40.333658 
L 559.500317 -40.333658 
L 556.951208 -40.333658 
L 554.402099 -40.333658 
L 551.85299 -40.333658 
L 549.30388 -40.333658 
L 546.754771 -40.333658 
L 544.205662 -40.333658 
L 541.656553 -40.333658 
L 539.107444 -40.333658 
L 536.558335 -40.333658 
L 534.009225 -40.333658 
L 531.460116 -40.333658 
L 528.911007 -40.333658 
L 526.361898 -40.333658 
L 523.812789 -40.333658 
L 521.263679 -40.333658 
L 518.71457 -40.333658 
L 516.165461 -40.333658 
L 513.616352 -40.333658 
L 511.067243 -40.333658 
L 508.518134 -40.333658 
L 505.969024 -40.333658 
L 503.419915 -40.333658 
L 500.870806 -40.333658 
L 498.321697 -40.333658 
L 495.772588 -40.333658 
L 493.223478 -40.333658 
L 490.674369 -40.333658 
L 488.12526 -40.333658 
L 485.576151 -40.333658 
L 483.027042 -40.333658 
L 480.477933 -40.333658 
L 477.928823 -40.333658 
L 475.379714 -40.333658 
L 472.830605 -40.333658 
L 470.281496 -40.333658 
L 467.732387 -40.333658 
L 465.183277 -40.333658 
L 462.634168 -40.333658 
L 460.085059 -40.333658 
L 457.53595 -40.333658 
L 454.986841 -40.333658 
L 452.437732 -40.333658 
L 449.888622 -40.333658 
L 447.339513 -40.333658 
L 444.790404 -40.333658 
L 442.241295 -40.333658 
L 439.692186 -40.333658 
L 437.143076 -40.333658 
L 434.593967 -40.333658 
L 432.044858 -40.333658 
L 429.495749 -40.333658 
L 426.94664 -40.333658 
L 424.397531 -40.333658 
L 421.848421 -40.333658 
L 419.299312 -40.333658 
L 416.750203 -40.333658 
L 414.201094 -40.333658 
L 411.651985 -40.333658 
L 409.102875 -40.333658 
L 406.553766 -40.333658 
L 404.004657 -40.333658 
L 401.455548 -40.333658 
L 398.906439 -40.333658 
L 396.35733 -40.333658 
L 393.80822 -40.333658 
L 391.259111 -40.333658 
L 388.710002 -40.333658 
L 386.160893 -40.333658 
L 383.611784 -40.333658 
L 381.062674 -40.333658 
L 378.513565 -40.333658 
L 375.964456 -40.333658 
L 373.415347 -40.333658 
L 370.866238 -40.333658 
L 368.317129 -40.333658 
L 365.768019 -40.333658 
L 363.21891 -40.333658 
L 360.669801 -40.333658 
L 358.120692 -40.333658 
L 355.571583 -40.333658 
L 353.022473 -40.333658 
L 350.473364 -40.333658 
L 347.924255 -40.333658 
L 345.375146 -40.333658 
L 342.826037 -40.333658 
L 340.276928 -40.333658 
L 337.727818 -40.333658 
L 335.178709 -40.333658 
L 332.6296 -40.333658 
L 330.080491 -40.333658 
L 327.531382 -40.333658 
L 324.982272 -40.333658 
L 322.433163 -40.333658 
L 319.884054 -40.333658 
L 317.334945 -40.333658 
L 314.785836 -40.333658 
L 312.236727 -40.333658 
L 309.687617 -40.333658 
L 307.138508 -40.333658 
L 304.589399 -40.333658 
L 302.04029 -40.333658 
L 299.491181 -40.333658 
L 296.942071 -40.333658 
L 294.392962 -40.333658 
L 291.843853 -40.333658 
L 289.294744 -40.333658 
L 286.745635 -40.333658 
L 284.196526 -40.333658 
L 281.647416 -40.333658 
L 279.098307 -40.333658 
L 276.549198 -40.333658 
L 274.000089 -40.333658 
L 271.45098 -40.333658 
L 268.90187 -40.333658 
L 266.352761 -40.333658 
L 263.803652 -40.333658 
L 261.254543 -40.333658 
L 258.705434 -40.333658 
L 256.156325 -40.333658 
L 253.607215 -40.333661 
L 251.058106 -40.333658 
L 248.508997 -40.333658 
L 245.959888 -40.333658 
L 243.410779 -40.333658 
L 240.861669 -40.333658 
L 238.31256 -40.333658 
L 235.763451 -40.333658 
L 233.214342 -40.333658 
L 230.665233 -40.333658 
L 228.116124 -40.333659 
L 225.567014 -40.333658 
L 223.017905 -40.333658 
L 220.468796 -40.333712 
L 217.919687 -40.333658 
L 215.370578 -40.333658 
L 212.821468 -40.333658 
L 210.272359 -40.333658 
L 207.72325 -40.333658 
L 205.174141 -40.333761 
L 202.625032 -40.333658 
L 200.075923 -40.333683 
L 197.526813 -40.333658 
L 194.977704 -40.333658 
L 192.428595 -40.333658 
L 189.879486 -40.333658 
L 187.330377 -40.333658 
L 184.781267 -40.337033 
L 182.232158 -40.333658 
L 179.683049 -40.335027 
L 177.13394 -40.336546 
L 174.584831 -40.338442 
L 172.035722 -40.333658 
L 169.486612 -40.333736 
L 166.937503 -40.333658 
L 164.388394 -40.333743 
L 161.839285 -40.333664 
L 159.290176 -40.333763 
L 156.741066 -40.33406 
L 154.191957 -40.339718 
L 151.642848 -40.337687 
L 149.093739 -40.334983 
L 146.54463 -40.338408 
L 143.995521 -40.334615 
L 141.446411 -40.335125 
L 138.897302 -40.333658 
L 136.348193 -40.343804 
L 133.799084 -40.340262 
L 131.249975 -40.33984 
L 128.700865 -40.336466 
L 126.151756 -40.341552 
L 123.602647 -40.342971 
L 121.053538 -40.348423 
L 118.504429 -40.340898 
L 115.95532 -40.352906 
L 113.40621 -40.35601 
L 110.857101 -40.376542 
L 108.307992 -40.370182 
L 105.758883 -40.394941 
L 103.209774 -40.410866 
L 100.660664 -40.454807 
L 98.111555 -40.508599 
L 95.562446 -40.680488 
L 93.013337 -40.886819 
L 90.464228 -41.27457 
L 87.915119 -42.362644 
L 85.366009 -45.222033 
L 82.8169 -57.578506 
L 80.267791 -161.065963 
L 77.718682 -41.410188 
z
" style="stroke: #2ca02c"/>
    </defs>
    <g clip-path="url(#p953095f358)">
     <use xlink:href="#m7c823061ea" x="0" y="380.173658" style="fill: #2ca02c; fill-opacity: 0.25; stroke: #2ca02c"/>
    </g>
   </g>
   <g id="matplotlib.axis_1">
    <g id="xtick_1">
     <g id="line2d_1">
      <defs>
       <path id="m10297f5796" d="M 0 0 
L 0 3.5 
" style="stroke: #000000; stroke-width: 0.8"/>
      </defs>
      <g>
       <use xlink:href="#m10297f5796" x="78.370526" y="339.84" style="stroke: #000000; stroke-width: 0.8"/>
      </g>
     </g>
     <g id="text_1">
      <!-- $\mathdefault{0}$ -->
      <g transform="translate(75.232324 355.142195) scale(0.12 -0.12)">
       <defs>
        <path id="HFBR17-30" d="M 947 4087 
C 762 3959 634 3785 538 3586 
C 307 3136 282 2609 282 2037 
C 282 1317 410 656 768 276 
C 1107 -77 1645 -167 2099 19 
C 2381 129 2586 366 2714 623 
C 2944 1080 2970 1626 2970 2191 
C 2970 2371 2963 2551 2944 2731 
C 2899 3162 2752 3637 2515 3901 
C 2125 4332 1427 4428 947 4087 
z
M 2234 3721 
C 2534 3400 2560 2783 2560 2198 
L 2560 1851 
C 2560 1555 2509 1170 2445 951 
C 2355 649 2208 431 1914 296 
C 1555 167 1184 289 979 572 
C 704 938 691 1587 691 2159 
C 691 2699 698 3297 960 3650 
C 1248 4036 1869 4100 2234 3721 
z
" transform="scale(0.015625)"/>
       </defs>
       <use xlink:href="#HFBR17-30" transform="scale(0.996264)"/>
      </g>
     </g>
    </g>
    <g id="xtick_2">
     <g id="line2d_2">
      <g>
       <use xlink:href="#m10297f5796" x="163.122459" y="339.84" style="stroke: #000000; stroke-width: 0.8"/>
      </g>
     </g>
     <g id="text_2">
      <!-- $\mathdefault{500}$ -->
      <g transform="translate(153.707851 355.142195) scale(0.12 -0.12)">
       <defs>
        <path id="HFBR17-35" d="M 538 4245 
L 538 1949 
L 781 1949 
C 813 1949 858 1943 883 1956 
C 915 1975 934 2020 954 2046 
C 998 2103 1050 2148 1101 2193 
C 1331 2386 1773 2463 2067 2315 
C 2470 2123 2547 1614 2515 1216 
C 2496 964 2419 733 2272 585 
C 1933 224 1363 224 947 435 
C 742 538 570 699 442 891 
L 435 891 
C 416 859 269 634 269 595 
C 269 569 288 550 301 531 
C 493 306 742 132 1030 36 
C 1600 -144 2240 -3 2643 460 
C 3123 1019 3059 1930 2502 2417 
C 2336 2572 2106 2681 1830 2706 
C 1459 2758 1126 2578 928 2411 
L 928 3904 
L 2746 3904 
L 2746 4245 
L 538 4245 
z
" transform="scale(0.015625)"/>
       </defs>
       <use xlink:href="#HFBR17-35" transform="scale(0.996264)"/>
       <use xlink:href="#HFBR17-30" transform="translate(50.643218 0) scale(0.996264)"/>
       <use xlink:href="#HFBR17-30" transform="translate(101.286436 0) scale(0.996264)"/>
      </g>
     </g>
    </g>
    <g id="xtick_3">
     <g id="line2d_3">
      <g>
       <use xlink:href="#m10297f5796" x="247.874392" y="339.84" style="stroke: #000000; stroke-width: 0.8"/>
      </g>
     </g>
     <g id="text_3">
      <!-- $\mathdefault{1000}$ -->
      <g transform="translate(235.321581 355.142195) scale(0.12 -0.12)">
       <defs>
        <path id="HFBR17-31" d="M 621 3841 
L 621 3520 
C 973 3520 1216 3584 1498 3706 
L 1498 321 
L 659 321 
L 659 0 
L 2752 0 
L 2752 321 
L 1914 321 
L 1914 4288 
C 1760 4288 1786 4247 1664 4152 
C 1402 3950 1037 3841 621 3841 
z
" transform="scale(0.015625)"/>
       </defs>
       <use xlink:href="#HFBR17-31" transform="scale(0.996264)"/>
       <use xlink:href="#HFBR17-30" transform="translate(50.643218 0) scale(0.996264)"/>
       <use xlink:href="#HFBR17-30" transform="translate(101.286436 0) scale(0.996264)"/>
       <use xlink:href="#HFBR17-30" transform="translate(151.929653 0) scale(0.996264)"/>
      </g>
     </g>
    </g>
    <g id="xtick_4">
     <g id="line2d_4">
      <g>
       <use xlink:href="#m10297f5796" x="332.626324" y="339.84" style="stroke: #000000; stroke-width: 0.8"/>
      </g>
     </g>
     <g id="text_4">
      <!-- $\mathdefault{1500}$ -->
      <g transform="translate(320.073513 355.142195) scale(0.12 -0.12)">
       <use xlink:href="#HFBR17-31" transform="scale(0.996264)"/>
       <use xlink:href="#HFBR17-35" transform="translate(50.643218 0) scale(0.996264)"/>
       <use xlink:href="#HFBR17-30" transform="translate(101.286436 0) scale(0.996264)"/>
       <use xlink:href="#HFBR17-30" transform="translate(151.929653 0) scale(0.996264)"/>
      </g>
     </g>
    </g>
    <g id="xtick_5">
     <g id="line2d_5">
      <g>
       <use xlink:href="#m10297f5796" x="417.378257" y="339.84" style="stroke: #000000; stroke-width: 0.8"/>
      </g>
     </g>
     <g id="text_5">
      <!-- $\mathdefault{2000}$ -->
      <g transform="translate(404.825446 355.142195) scale(0.12 -0.12)">
       <defs>
        <path id="HFBR17-32" d="M 467 2942 
C 557 3302 710 3711 1075 3872 
C 1229 3936 1395 3949 1562 3936 
C 1875 3910 2182 3782 2374 3526 
C 2515 3333 2566 3096 2541 2866 
C 2464 2198 1811 1718 1389 1359 
C 1146 1154 454 500 454 500 
L 346 397 
C 288 340 282 340 282 224 
L 282 0 
L 2970 0 
L 2970 360 
L 653 360 
C 858 559 1709 1313 1824 1403 
C 2195 1706 2611 2008 2835 2446 
C 3085 2948 2976 3580 2554 3953 
C 2298 4179 1946 4288 1606 4288 
C 1293 4288 973 4224 723 4026 
C 531 3865 371 3628 282 3384 
C 262 3346 230 3282 237 3237 
C 243 3199 282 3167 301 3141 
C 352 3077 403 3000 467 2942 
z
" transform="scale(0.015625)"/>
       </defs>
       <use xlink:href="#HFBR17-32" transform="scale(0.996264)"/>
       <use xlink:href="#HFBR17-30" transform="translate(50.643218 0) scale(0.996264)"/>
       <use xlink:href="#HFBR17-30" transform="translate(101.286436 0) scale(0.996264)"/>
       <use xlink:href="#HFBR17-30" transform="translate(151.929653 0) scale(0.996264)"/>
      </g>
     </g>
    </g>
    <g id="xtick_6">
     <g id="line2d_6">
      <g>
       <use xlink:href="#m10297f5796" x="502.13019" y="339.84" style="stroke: #000000; stroke-width: 0.8"/>
      </g>
     </g>
     <g id="text_6">
      <!-- $\mathdefault{2500}$ -->
      <g transform="translate(489.577379 355.142195) scale(0.12 -0.12)">
       <use xlink:href="#HFBR17-32" transform="scale(0.996264)"/>
       <use xlink:href="#HFBR17-35" transform="translate(50.643218 0) scale(0.996264)"/>
       <use xlink:href="#HFBR17-30" transform="translate(101.286436 0) scale(0.996264)"/>
       <use xlink:href="#HFBR17-30" transform="translate(151.929653 0) scale(0.996264)"/>
      </g>
     </g>
    </g>
    <g id="xtick_7">
     <g id="line2d_7">
      <g>
       <use xlink:href="#m10297f5796" x="586.882122" y="339.84" style="stroke: #000000; stroke-width: 0.8"/>
      </g>
     </g>
     <g id="text_7">
      <!-- $\mathdefault{3000}$ -->
      <g transform="translate(574.329311 355.142195) scale(0.12 -0.12)">
       <defs>
        <path id="HFBR17-33" d="M 518 3246 
C 570 3323 608 3407 666 3484 
C 800 3664 986 3805 1197 3889 
C 1530 4024 2016 4024 2278 3726 
C 2509 3461 2413 3047 2202 2802 
C 2010 2576 1760 2466 1389 2466 
C 1280 2466 1178 2434 1069 2434 
L 1069 2112 
L 1510 2112 
C 1882 2112 2125 2055 2330 1836 
C 2682 1463 2650 801 2259 461 
C 2061 294 1786 242 1530 261 
C 1030 300 589 564 294 975 
C 262 911 262 821 250 750 
C 230 647 230 647 294 564 
C 480 313 845 82 1133 -2 
C 1645 -156 2240 -86 2637 306 
C 2714 384 2784 467 2842 557 
C 3078 930 3085 1418 2822 1778 
C 2714 1926 2573 2042 2413 2132 
C 2304 2196 2176 2260 2048 2273 
C 2419 2447 2765 2741 2829 3223 
C 2886 3672 2624 3948 2355 4108 
C 1939 4352 1395 4352 966 4139 
C 768 4043 589 3902 454 3728 
C 429 3696 333 3587 333 3535 
C 333 3503 358 3471 378 3445 
L 518 3246 
z
" transform="scale(0.015625)"/>
       </defs>
       <use xlink:href="#HFBR17-33" transform="scale(0.996264)"/>
       <use xlink:href="#HFBR17-30" transform="translate(50.643218 0) scale(0.996264)"/>
       <use xlink:href="#HFBR17-30" transform="translate(101.286436 0) scale(0.996264)"/>
       <use xlink:href="#HFBR17-30" transform="translate(151.929653 0) scale(0.996264)"/>
      </g>
     </g>
    </g>
    <g id="text_8">
     <!-- num_of_stop_words -->
     <g transform="translate(275.893182 370.682248) scale(0.138 -0.138)">
      <defs>
       <path id="HFBR17-6e" d="M 806 2386 
L 800 2386 
L 800 3033 
L 410 3033 
L 410 0 
L 819 0 
L 819 1404 
C 819 1718 800 2040 941 2334 
C 1011 2482 1120 2610 1267 2687 
C 1389 2745 1517 2745 1651 2732 
C 1843 2732 2029 2681 2150 2520 
C 2266 2372 2272 2180 2272 2000 
L 2272 0 
L 2682 0 
L 2682 1719 
C 2682 2040 2714 2392 2560 2681 
C 2438 2912 2202 3021 1952 3053 
C 1824 3072 1690 3072 1562 3047 
C 1229 2976 922 2707 806 2386 
z
" transform="scale(0.015625)"/>
       <path id="HFBR17-75" d="M 410 3008 
L 410 830 
C 410 643 416 457 493 283 
C 614 33 870 -64 1133 -64 
C 1485 -64 1837 52 2093 303 
C 2163 373 2227 444 2272 534 
L 2278 534 
L 2278 -25 
L 2682 -25 
L 2682 3008 
L 2272 3008 
L 2272 1466 
C 2272 1196 2310 900 2170 656 
C 2067 476 1888 335 1690 271 
C 1555 232 1414 232 1274 245 
C 1139 258 992 271 902 386 
C 774 541 819 907 819 1132 
L 819 3008 
L 410 3008 
z
" transform="scale(0.015625)"/>
       <path id="HFBR17-6d" d="M 806 2391 
L 800 2391 
L 800 3033 
L 410 3033 
L 410 0 
L 819 0 
L 819 1411 
C 819 1725 800 2040 941 2328 
C 1062 2578 1274 2777 1651 2738 
C 1843 2738 2035 2687 2157 2525 
C 2272 2377 2278 2185 2278 2004 
L 2278 0 
L 2688 0 
L 2688 1411 
C 2688 1725 2669 2040 2810 2328 
C 2931 2578 3142 2777 3520 2738 
C 3712 2738 3904 2687 4026 2525 
C 4141 2377 4147 2185 4147 2004 
L 4147 0 
L 4557 0 
L 4557 1700 
C 4557 2008 4595 2354 4461 2636 
C 4326 2899 4109 3040 3757 3040 
C 3552 3059 3347 3028 3162 2934 
C 2938 2811 2771 2608 2669 2385 
C 2624 2597 2573 2741 2432 2880 
C 2285 3012 2086 3072 1894 3072 
C 1427 3110 1133 2916 934 2624 
C 883 2552 832 2475 806 2391 
z
" transform="scale(0.015625)"/>
       <path id="HFBR17-6f" d="M 685 2693 
C 115 2127 51 1144 544 508 
C 614 411 698 328 794 257 
C 1030 64 1376 -77 1779 -32 
C 2419 45 2861 566 2995 1112 
C 3174 1877 2797 2731 2093 3001 
C 1542 3226 992 3001 685 2693 
z
M 2285 2519 
C 2592 2242 2650 1799 2624 1407 
C 2605 1105 2522 790 2310 565 
C 1965 192 1325 192 954 552 
C 762 758 646 1053 627 1407 
C 595 1927 723 2480 1235 2686 
C 1613 2853 2048 2731 2285 2519 
z
" transform="scale(0.015625)"/>
       <path id="HFBR17-66" d="M 678 3009 
L 128 3009 
L 128 2688 
L 678 2688 
L 678 -32 
L 1082 -32 
L 1082 2688 
L 1875 2688 
L 1875 3009 
L 1075 3009 
L 1075 3570 
C 1075 3660 1056 3771 1094 3861 
C 1229 4144 1683 4196 2054 4132 
C 2131 4119 2202 4093 2278 4080 
L 2278 4441 
C 1843 4512 1363 4512 1005 4219 
C 947 4168 896 4118 851 4053 
C 717 3888 678 3704 678 3417 
L 678 3009 
z
" transform="scale(0.015625)"/>
       <path id="HFBR17-73" d="M 198 617 
C 186 527 166 444 154 354 
C 141 283 122 251 186 219 
C 448 65 762 -19 1133 -51 
C 1549 -90 2074 7 2278 418 
C 2336 534 2368 662 2374 791 
C 2400 1253 2035 1549 1722 1658 
C 1370 1793 890 1748 646 2018 
C 518 2166 512 2385 634 2539 
C 890 2899 1715 2744 2042 2584 
C 2093 2558 2138 2526 2195 2513 
L 2253 2860 
C 1952 2995 1690 3072 1274 3072 
C 915 3072 589 2989 384 2783 
C 179 2571 109 2217 230 1948 
C 346 1690 589 1523 851 1440 
C 1229 1305 1658 1369 1907 1061 
C 2048 881 2022 611 1862 450 
C 1555 167 902 270 544 424 
C 422 476 314 553 198 617 
z
" transform="scale(0.015625)"/>
       <path id="HFBR17-74" d="M 691 3872 
L 691 3009 
L 70 3009 
L 70 2688 
L 685 2688 
L 685 961 
C 685 677 666 335 851 97 
C 960 -45 1107 -83 1331 -64 
C 1517 -64 1702 -25 1875 42 
C 1933 68 2144 161 2170 207 
C 2182 233 2099 518 2099 518 
L 1946 401 
C 1747 278 1350 149 1184 382 
C 1037 582 1075 880 1075 1112 
L 1075 2688 
L 2067 2688 
L 2067 3009 
L 1075 3009 
L 1075 3872 
L 691 3872 
z
" transform="scale(0.015625)"/>
       <path id="HFBR17-70" d="M 813 2594 
L 813 3018 
L 410 3018 
L 410 -1088 
L 819 -1088 
L 819 390 
C 909 261 1011 146 1146 69 
C 1600 -208 2176 11 2490 422 
C 2906 958 2950 1760 2662 2367 
C 2496 2716 2182 3040 1779 3072 
C 1427 3072 1158 2932 966 2760 
C 909 2709 864 2652 813 2594 
z
M 1402 2744 
C 1664 2763 1920 2641 2099 2449 
C 2208 2326 2291 2185 2342 2031 
C 2566 1427 2362 591 1715 341 
C 1344 199 979 328 838 675 
C 806 739 819 823 819 893 
L 819 2217 
C 819 2365 832 2378 928 2487 
C 1043 2628 1216 2725 1402 2744 
z
" transform="scale(0.015625)"/>
       <path id="HFBR17-77" d="M 45 3040 
C 58 2957 922 58 922 58 
C 941 0 973 0 1056 0 
L 1254 0 
C 1286 0 1331 -6 1350 19 
C 1370 39 1427 244 1427 244 
C 1619 936 1952 1982 2080 2630 
L 2086 2630 
C 2086 2540 2118 2450 2138 2361 
C 2240 1905 2784 64 2810 19 
C 2829 -13 2880 0 2912 0 
L 3155 0 
C 3187 0 3232 -6 3258 7 
C 3277 19 3283 45 3290 64 
C 3482 745 4141 2893 4166 3040 
C 4032 3040 3898 3040 3782 3021 
L 3757 2956 
C 3514 2112 3251 1293 3034 423 
L 3027 423 
L 2957 718 
L 2285 3040 
L 1907 3040 
C 1664 2168 1382 1334 1178 423 
L 1069 871 
C 858 1588 659 2317 442 3021 
C 326 3040 179 3040 45 3040 
z
" transform="scale(0.015625)"/>
       <path id="HFBR17-72" d="M 800 2224 
L 794 2224 
L 794 3033 
L 410 3033 
L 410 0 
L 813 0 
L 813 1465 
C 813 1562 813 1658 826 1754 
C 915 2301 1389 2706 2010 2706 
L 2010 3072 
C 1600 3072 1222 2873 979 2545 
C 909 2449 832 2339 800 2224 
z
" transform="scale(0.015625)"/>
       <path id="HFBR17-64" d="M 2278 4460 
L 2278 2648 
C 2157 2783 2035 2911 1869 2988 
C 1299 3226 749 2918 467 2410 
C 141 1806 179 1009 570 443 
C 845 51 1299 -141 1779 32 
C 1965 103 2189 289 2266 456 
L 2272 456 
L 2272 0 
L 2682 0 
L 2682 4460 
L 2278 4460 
z
M 2253 2397 
C 2285 2339 2272 2262 2272 2198 
L 2272 874 
C 2272 726 2266 713 2182 598 
C 2067 424 1888 302 1677 283 
C 1370 257 1056 405 877 656 
C 774 803 717 983 685 1163 
C 672 1234 672 1298 666 1369 
C 627 1793 717 2294 1088 2564 
C 1152 2609 1222 2641 1293 2673 
C 1664 2815 2074 2776 2253 2397 
z
" transform="scale(0.015625)"/>
      </defs>
      <use xlink:href="#HFBR17-6e" transform="scale(0.996264)"/>
      <use xlink:href="#HFBR17-75" transform="translate(48.152497 0) scale(0.996264)"/>
      <use xlink:href="#HFBR17-6d" transform="translate(96.304994 0) scale(0.996264)"/>
      <use xlink:href="#HFBR17-6f" transform="translate(209.978283 0) scale(0.996264)"/>
      <use xlink:href="#HFBR17-66" transform="translate(260.621501 0) scale(0.996264)"/>
      <use xlink:href="#HFBR17-73" transform="translate(327.387607 0) scale(0.996264)"/>
      <use xlink:href="#HFBR17-74" transform="translate(365.826636 0) scale(0.996264)"/>
      <use xlink:href="#HFBR17-6f" transform="translate(401.941024 0) scale(0.996264)"/>
      <use xlink:href="#HFBR17-70" transform="translate(452.584242 0) scale(0.996264)"/>
      <use xlink:href="#HFBR17-77" transform="translate(537.199902 0) scale(0.996264)"/>
      <use xlink:href="#HFBR17-6f" transform="translate(599.881213 0) scale(0.996264)"/>
      <use xlink:href="#HFBR17-72" transform="translate(647.618702 0) scale(0.996264)"/>
      <use xlink:href="#HFBR17-64" transform="translate(679.58206 0) scale(0.996264)"/>
      <use xlink:href="#HFBR17-73" transform="translate(727.734557 0) scale(0.996264)"/>
      <path d="M 179.592048 0 
L 209.978283 0 
L 209.978283 0.3985 
L 179.592048 0.3985 
L 179.592048 0 
z
"/>
      <path d="M 297.001372 0 
L 327.387607 0 
L 327.387607 0.3985 
L 297.001372 0.3985 
L 297.001372 0 
z
"/>
      <path d="M 506.813667 0 
L 537.199902 0 
L 537.199902 0.3985 
L 506.813667 0.3985 
L 506.813667 0 
z
"/>
     </g>
    </g>
   </g>
   <g id="matplotlib.axis_2">
    <g id="ytick_1">
     <g id="line2d_8">
      <defs>
       <path id="m07bdf34ce2" d="M 0 0 
L -3.5 0 
" style="stroke: #000000; stroke-width: 0.8"/>
      </defs>
      <g>
       <use xlink:href="#m07bdf34ce2" x="52.355045" y="339.84" style="stroke: #000000; stroke-width: 0.8"/>
      </g>
     </g>
     <g id="text_9">
      <!-- $\mathdefault{0.00}$ -->
      <g transform="translate(23.038935 343.991098) scale(0.12 -0.12)">
       <defs>
        <path id="HFBRMI10-3a" d="M 685 500 
L 685 0 
L 1184 0 
L 1184 500 
L 685 500 
z
" transform="scale(0.015625)"/>
       </defs>
       <use xlink:href="#HFBR17-30" transform="scale(0.996264)"/>
       <use xlink:href="#HFBRMI10-3a" transform="translate(50.643218 0) scale(0.996264)"/>
       <use xlink:href="#HFBR17-30" transform="translate(79.700665 0) scale(0.996264)"/>
       <use xlink:href="#HFBR17-30" transform="translate(130.343883 0) scale(0.996264)"/>
      </g>
     </g>
    </g>
    <g id="ytick_2">
     <g id="line2d_9">
      <g>
       <use xlink:href="#m07bdf34ce2" x="52.355045" y="266.490451" style="stroke: #000000; stroke-width: 0.8"/>
      </g>
     </g>
     <g id="text_10">
      <!-- $\mathdefault{0.02}$ -->
      <g transform="translate(23.038935 270.641549) scale(0.12 -0.12)">
       <use xlink:href="#HFBR17-30" transform="scale(0.996264)"/>
       <use xlink:href="#HFBRMI10-3a" transform="translate(50.643218 0) scale(0.996264)"/>
       <use xlink:href="#HFBR17-30" transform="translate(79.700665 0) scale(0.996264)"/>
       <use xlink:href="#HFBR17-32" transform="translate(130.343883 0) scale(0.996264)"/>
      </g>
     </g>
    </g>
    <g id="ytick_3">
     <g id="line2d_10">
      <g>
       <use xlink:href="#m07bdf34ce2" x="52.355045" y="193.140902" style="stroke: #000000; stroke-width: 0.8"/>
      </g>
     </g>
     <g id="text_11">
      <!-- $\mathdefault{0.04}$ -->
      <g transform="translate(23.038935 197.292) scale(0.12 -0.12)">
       <defs>
        <path id="HFBR17-34" d="M 134 1152 
L 1984 1152 
L 1984 0 
L 2387 0 
L 2387 1152 
L 3117 1152 
L 3117 1493 
L 2387 1493 
L 2387 4254 
L 2042 4254 
C 1926 4254 1894 4261 1843 4164 
C 1587 3745 237 1649 192 1591 
C 141 1500 134 1507 134 1372 
L 134 1152 
z
M 2003 3896 
L 2003 1493 
L 550 1493 
C 595 1583 659 1666 717 1756 
C 1037 2251 1798 3427 1958 3794 
C 1978 3826 1984 3864 2003 3896 
z
" transform="scale(0.015625)"/>
       </defs>
       <use xlink:href="#HFBR17-30" transform="scale(0.996264)"/>
       <use xlink:href="#HFBRMI10-3a" transform="translate(50.643218 0) scale(0.996264)"/>
       <use xlink:href="#HFBR17-30" transform="translate(79.700665 0) scale(0.996264)"/>
       <use xlink:href="#HFBR17-34" transform="translate(130.343883 0) scale(0.996264)"/>
      </g>
     </g>
    </g>
    <g id="ytick_4">
     <g id="line2d_11">
      <g>
       <use xlink:href="#m07bdf34ce2" x="52.355045" y="119.791353" style="stroke: #000000; stroke-width: 0.8"/>
      </g>
     </g>
     <g id="text_12">
      <!-- $\mathdefault{0.06}$ -->
      <g transform="translate(23.038935 123.942451) scale(0.12 -0.12)">
       <defs>
        <path id="HFBR17-36" d="M 723 2088 
L 717 2088 
C 717 2673 819 3355 1318 3728 
C 1594 3928 1965 4030 2445 3915 
C 2547 3889 2643 3850 2739 3825 
L 2739 4050 
C 2739 4075 2746 4120 2726 4146 
C 2682 4204 2323 4262 2310 4262 
C 1754 4326 1389 4204 1050 3915 
C 640 3561 403 3041 326 2514 
C 256 2090 314 1408 397 1074 
C 531 579 787 142 1261 -25 
C 1542 -128 1888 -128 2157 1 
C 2374 105 2554 286 2694 480 
C 2918 790 2976 1166 2950 1547 
C 2938 1735 2912 1923 2835 2097 
C 2714 2376 2509 2667 2246 2796 
C 2125 2848 1997 2848 1869 2848 
C 1530 2848 1210 2700 973 2455 
C 870 2352 768 2222 723 2088 
z
M 1562 2529 
C 1805 2548 2061 2510 2246 2336 
C 2490 2105 2534 1777 2534 1460 
C 2534 1246 2541 1025 2477 823 
C 2438 719 2387 629 2330 544 
C 2189 356 2010 264 1715 225 
C 1427 225 1139 340 973 584 
C 870 725 819 899 787 1065 
C 749 1238 723 1417 736 1591 
C 768 2047 1088 2465 1562 2529 
z
" transform="scale(0.015625)"/>
       </defs>
       <use xlink:href="#HFBR17-30" transform="scale(0.996264)"/>
       <use xlink:href="#HFBRMI10-3a" transform="translate(50.643218 0) scale(0.996264)"/>
       <use xlink:href="#HFBR17-30" transform="translate(79.700665 0) scale(0.996264)"/>
       <use xlink:href="#HFBR17-36" transform="translate(130.343883 0) scale(0.996264)"/>
      </g>
     </g>
    </g>
    <g id="ytick_5">
     <g id="line2d_12">
      <g>
       <use xlink:href="#m07bdf34ce2" x="52.355045" y="46.441804" style="stroke: #000000; stroke-width: 0.8"/>
      </g>
     </g>
     <g id="text_13">
      <!-- $\mathdefault{0.08}$ -->
      <g transform="translate(23.038935 50.592902) scale(0.12 -0.12)">
       <defs>
        <path id="HFBR17-38" d="M 1197 2304 
L 1197 2298 
C 800 2182 467 1964 307 1590 
C 141 1198 256 722 538 413 
C 838 91 1248 -64 1683 -64 
C 2323 -64 2938 410 3014 1071 
C 3027 1169 3021 1273 3008 1370 
C 2893 1870 2528 2168 2054 2298 
C 2106 2317 2163 2330 2214 2349 
C 2483 2459 2707 2619 2848 2876 
C 3059 3288 2854 3770 2509 4033 
C 2163 4297 1696 4367 1274 4277 
C 768 4168 288 3738 320 3185 
C 333 2992 416 2831 512 2716 
C 659 2536 947 2343 1197 2304 
z
M 1523 4000 
C 1805 4000 2157 3968 2362 3749 
C 2605 3486 2618 3010 2374 2740 
C 2221 2573 1997 2489 1773 2470 
C 1459 2444 1101 2496 877 2740 
C 627 3016 646 3518 915 3775 
C 1082 3929 1306 3980 1523 4000 
z
M 1517 2144 
C 1818 2144 2144 2073 2362 1852 
C 2445 1762 2509 1652 2547 1537 
C 2656 1200 2605 774 2355 515 
C 2182 341 1946 276 1709 257 
C 1421 257 1088 327 883 548 
C 602 857 544 1498 877 1860 
C 1043 2034 1280 2125 1517 2144 
z
" transform="scale(0.015625)"/>
       </defs>
       <use xlink:href="#HFBR17-30" transform="scale(0.996264)"/>
       <use xlink:href="#HFBRMI10-3a" transform="translate(50.643218 0) scale(0.996264)"/>
       <use xlink:href="#HFBR17-30" transform="translate(79.700665 0) scale(0.996264)"/>
       <use xlink:href="#HFBR17-38" transform="translate(130.343883 0) scale(0.996264)"/>
      </g>
     </g>
    </g>
    <g id="text_14">
     <!-- Density -->
     <g transform="translate(16.747525 195.2767) rotate(-90) scale(0.138 -0.138)">
      <defs>
       <path id="HFBR17-44" d="M 512 4480 
L 512 0 
L 1805 0 
C 2010 0 2214 0 2413 19 
C 2925 71 3366 321 3661 629 
C 4486 1483 4480 2952 3667 3819 
C 3373 4133 2976 4384 2477 4448 
C 2234 4480 1984 4480 1741 4480 
L 512 4480 
z
M 954 340 
L 954 4132 
L 1779 4132 
C 1952 4132 2125 4132 2298 4119 
C 2586 4087 2867 3991 3104 3823 
C 3622 3464 3840 2827 3840 2217 
C 3840 1703 3699 1176 3322 809 
C 3066 572 2720 398 2304 353 
C 2138 340 1965 340 1798 340 
L 954 340 
z
" transform="scale(0.015625)"/>
       <path id="HFBR17-65" d="M 2675 700 
C 2528 591 2483 533 2298 436 
C 1907 224 1446 224 1114 459 
C 794 689 608 1065 608 1600 
L 2720 1600 
C 2720 2075 2611 2487 2342 2776 
C 2048 3065 1587 3155 1197 3033 
C 1050 2988 915 2911 794 2814 
C 390 2487 218 1966 224 1458 
C 237 790 691 122 1363 -20 
C 1715 -91 2086 -13 2400 147 
C 2458 179 2669 295 2694 353 
C 2714 385 2675 700 2675 700 
z
M 2381 1850 
L 640 1850 
C 717 2319 1101 2814 1619 2756 
C 2042 2718 2266 2416 2349 2037 
C 2362 1972 2368 1915 2381 1850 
z
" transform="scale(0.015625)"/>
       <path id="HFBR17-69" d="M 410 4480 
L 410 4075 
L 813 4075 
L 813 4480 
L 410 4480 
z
M 410 3033 
L 410 0 
L 813 0 
L 813 3033 
L 410 3033 
z
" transform="scale(0.015625)"/>
       <path id="HFBR17-79" d="M 45 3050 
C 83 2928 346 2279 352 2260 
L 1114 293 
L 1178 133 
C 1216 43 1229 30 1190 -73 
L 1120 -259 
C 1062 -414 998 -574 877 -671 
C 659 -851 314 -748 51 -690 
L 83 -1056 
C 205 -1075 326 -1088 448 -1088 
C 723 -1121 902 -1056 1069 -915 
C 1280 -735 1382 -484 1478 -227 
L 1677 325 
L 2330 2106 
C 2438 2427 2573 2729 2675 3050 
L 2387 3050 
C 2355 3050 2304 3063 2278 3038 
C 2266 3018 2259 2993 2253 2973 
L 2202 2838 
C 2138 2671 2080 2511 2022 2343 
L 1651 1296 
C 1555 1013 1446 724 1395 428 
C 1325 724 1229 1007 1126 1289 
C 1043 1508 544 2851 480 2980 
C 454 3050 429 3050 333 3050 
L 45 3050 
z
" transform="scale(0.015625)"/>
      </defs>
      <use xlink:href="#HFBR17-44" transform="scale(0.996264)"/>
      <use xlink:href="#HFBR17-65" transform="translate(71.606187 0) scale(0.996264)"/>
      <use xlink:href="#HFBR17-6e" transform="translate(116.437855 0) scale(0.996264)"/>
      <use xlink:href="#HFBR17-73" transform="translate(164.590351 0) scale(0.996264)"/>
      <use xlink:href="#HFBR17-69" transform="translate(203.029381 0) scale(0.996264)"/>
      <use xlink:href="#HFBR17-74" transform="translate(222.12434 0) scale(0.996264)"/>
      <use xlink:href="#HFBR17-79" transform="translate(255.332998 0) scale(0.996264)"/>
     </g>
    </g>
   </g>
   <g id="patch_3">
    <path d="M 52.355045 339.84 
L 52.355045 7.2 
" style="fill: none; stroke: #000000; stroke-width: 0.8; stroke-linejoin: miter; stroke-linecap: square"/>
   </g>
   <g id="patch_4">
    <path d="M 610.355045 339.84 
L 610.355045 7.2 
" style="fill: none; stroke: #000000; stroke-width: 0.8; stroke-linejoin: miter; stroke-linecap: square"/>
   </g>
   <g id="patch_5">
    <path d="M 52.355045 339.84 
L 610.355045 339.84 
" style="fill: none; stroke: #000000; stroke-width: 0.8; stroke-linejoin: miter; stroke-linecap: square"/>
   </g>
   <g id="patch_6">
    <path d="M 52.355045 7.2 
L 610.355045 7.2 
" style="fill: none; stroke: #000000; stroke-width: 0.8; stroke-linejoin: miter; stroke-linecap: square"/>
   </g>
   <g id="legend_1">
    <g id="patch_7">
     <path d="M 519.171922 65.977584 
L 601.955045 65.977584 
Q 604.355045 65.977584 604.355045 63.577584 
L 604.355045 15.6 
Q 604.355045 13.2 601.955045 13.2 
L 519.171922 13.2 
Q 516.771922 13.2 516.771922 15.6 
L 516.771922 63.577584 
Q 516.771922 65.977584 519.171922 65.977584 
z
" style="fill: #ffffff; opacity: 0.8; stroke: #cccccc; stroke-linejoin: miter"/>
    </g>
    <g id="patch_8">
     <path d="M 521.571922 26.4 
L 545.571922 26.4 
L 545.571922 18 
L 521.571922 18 
z
" style="fill: #1f77b4; fill-opacity: 0.25; stroke: #1f77b4; stroke-linejoin: miter"/>
    </g>
    <g id="text_15">
     <!-- Positive -->
     <g transform="translate(555.171922 26.4) scale(0.12 -0.12)">
      <defs>
       <path id="HFBR17-50" d="M 512 4480 
L 512 32 
L 960 32 
L 960 1920 
L 1862 1920 
C 2003 1920 2144 1920 2278 1920 
C 2752 1959 3149 2153 3418 2443 
C 3693 2746 3814 3210 3635 3603 
C 3430 4099 2944 4415 2323 4480 
C 2138 4480 1946 4480 1760 4480 
L 512 4480 
z
M 954 2254 
L 954 4139 
L 1830 4139 
C 2387 4139 2893 4075 3149 3690 
C 3322 3432 3347 3072 3206 2795 
C 3130 2646 3014 2531 2874 2447 
C 2560 2254 2195 2254 1843 2254 
L 954 2254 
z
" transform="scale(0.015625)"/>
       <path id="HFBR17-76" d="M 45 3040 
C 77 2912 269 2405 282 2373 
C 346 2194 1107 39 1126 19 
C 1146 -13 1203 0 1235 0 
L 1459 0 
C 1542 0 1594 -19 1613 58 
C 1818 597 2566 2733 2675 3040 
L 2278 3040 
C 1971 2175 1658 1308 1370 423 
L 704 2317 
C 608 2547 550 2809 442 3021 
C 326 3040 179 3040 45 3040 
z
" transform="scale(0.015625)"/>
      </defs>
      <use xlink:href="#HFBR17-50" transform="scale(0.996264)"/>
      <use xlink:href="#HFBR17-6f" transform="translate(59.983178 0) scale(0.996264)"/>
      <use xlink:href="#HFBR17-73" transform="translate(110.626396 0) scale(0.996264)"/>
      <use xlink:href="#HFBR17-69" transform="translate(149.065425 0) scale(0.996264)"/>
      <use xlink:href="#HFBR17-74" transform="translate(168.160384 0) scale(0.996264)"/>
      <use xlink:href="#HFBR17-69" transform="translate(204.274772 0) scale(0.996264)"/>
      <use xlink:href="#HFBR17-76" transform="translate(223.36973 0) scale(0.996264)"/>
      <use xlink:href="#HFBR17-65" transform="translate(265.710768 0) scale(0.996264)"/>
     </g>
    </g>
    <g id="patch_9">
     <path d="M 521.571922 42.792528 
L 545.571922 42.792528 
L 545.571922 34.392528 
L 521.571922 34.392528 
z
" style="fill: #ff7f0e; fill-opacity: 0.25; stroke: #ff7f0e; stroke-linejoin: miter"/>
    </g>
    <g id="text_16">
     <!-- Neutral -->
     <g transform="translate(555.171922 42.792528) scale(0.12 -0.12)">
      <defs>
       <path id="HFBR17-4e" d="M 525 4454 
L 525 0 
L 922 0 
L 922 4100 
L 928 4100 
L 2547 1161 
C 2765 773 2976 380 3200 0 
C 3373 -39 3622 0 3821 0 
L 3821 4454 
L 3424 4454 
L 3424 354 
L 1811 3268 
C 1587 3661 1382 4074 1146 4454 
C 973 4493 723 4454 525 4454 
z
" transform="scale(0.015625)"/>
       <path id="HFBR17-61" d="M 506 2497 
C 614 2551 704 2630 813 2683 
C 986 2762 1165 2816 1357 2816 
C 1446 2822 1549 2835 1638 2816 
C 1798 2790 1939 2693 2035 2557 
C 2131 2401 2170 2265 2170 2014 
L 2170 1729 
C 1862 1729 1555 1703 1261 1625 
C 890 1541 486 1352 352 1014 
C 218 690 358 261 646 66 
C 787 -32 954 -32 1120 -19 
C 1389 0 1658 65 1888 208 
C 1997 272 2106 357 2170 467 
L 2176 467 
L 2176 13 
L 2579 13 
L 2579 1721 
C 2579 1908 2598 2109 2560 2297 
C 2522 2555 2362 2769 2176 2918 
C 1958 3086 1709 3143 1376 3118 
C 1069 3118 832 3040 602 2929 
C 570 2916 506 2895 486 2857 
C 467 2830 480 2785 480 2752 
C 493 2667 499 2582 506 2497 
z
M 2170 1536 
L 2170 1048 
C 2170 900 2176 765 2093 637 
C 2022 534 1926 463 1824 412 
C 1459 225 902 283 742 592 
C 614 816 749 1080 934 1228 
C 1210 1440 1747 1536 2170 1536 
z
" transform="scale(0.015625)"/>
       <path id="HFBR17-6c" d="M 410 4460 
L 410 0 
L 813 0 
L 813 4460 
L 410 4460 
z
" transform="scale(0.015625)"/>
      </defs>
      <use xlink:href="#HFBR17-4e" transform="scale(0.996264)"/>
      <use xlink:href="#HFBR17-65" transform="translate(67.662753 0) scale(0.996264)"/>
      <use xlink:href="#HFBR17-75" transform="translate(112.494421 0) scale(0.996264)"/>
      <use xlink:href="#HFBR17-74" transform="translate(160.646918 0) scale(0.996264)"/>
      <use xlink:href="#HFBR17-72" transform="translate(196.761306 0) scale(0.996264)"/>
      <use xlink:href="#HFBR17-61" transform="translate(228.724665 0) scale(0.996264)"/>
      <use xlink:href="#HFBR17-6c" transform="translate(275.216747 0) scale(0.996264)"/>
     </g>
    </g>
    <g id="patch_10">
     <path d="M 521.571922 59.185056 
L 545.571922 59.185056 
L 545.571922 50.785056 
L 521.571922 50.785056 
z
" style="fill: #2ca02c; fill-opacity: 0.25; stroke: #2ca02c; stroke-linejoin: miter"/>
    </g>
    <g id="text_17">
     <!-- Negative -->
     <g transform="translate(555.171922 59.185056) scale(0.12 -0.12)">
      <defs>
       <path id="HFBR17-67" d="M 2266 767 
L 2272 767 
L 2272 170 
C 2272 -10 2272 -183 2214 -356 
C 2118 -588 1952 -800 1677 -838 
C 1600 -845 1517 -838 1440 -832 
C 1024 -832 749 -707 416 -555 
L 416 -799 
C 416 -922 435 -928 557 -967 
C 883 -1102 1472 -1236 1875 -1134 
C 2323 -1018 2650 -594 2682 -78 
C 2688 12 2682 109 2682 200 
L 2682 3072 
L 2278 3072 
L 2278 2559 
C 2182 2719 2080 2867 1914 2970 
C 1466 3240 858 2944 608 2597 
C 198 2089 122 1302 448 735 
C 512 626 589 523 678 433 
C 986 131 1510 -30 1888 240 
C 2042 343 2221 581 2266 767 
z
M 1632 2752 
C 1690 2752 1754 2752 1811 2739 
C 2042 2694 2170 2488 2246 2282 
C 2291 2141 2278 1987 2278 1839 
C 2278 1518 2272 1184 2163 881 
C 2086 657 1926 457 1677 432 
C 1594 425 1510 438 1427 457 
C 1037 547 768 881 685 1267 
C 570 1826 845 2507 1408 2700 
C 1478 2726 1555 2745 1632 2752 
z
" transform="scale(0.015625)"/>
      </defs>
      <use xlink:href="#HFBR17-4e" transform="scale(0.996264)"/>
      <use xlink:href="#HFBR17-65" transform="translate(67.662753 0) scale(0.996264)"/>
      <use xlink:href="#HFBR17-67" transform="translate(112.494421 0) scale(0.996264)"/>
      <use xlink:href="#HFBR17-61" transform="translate(160.646918 0) scale(0.996264)"/>
      <use xlink:href="#HFBR17-74" transform="translate(207.139 0) scale(0.996264)"/>
      <use xlink:href="#HFBR17-69" transform="translate(243.253388 0) scale(0.996264)"/>
      <use xlink:href="#HFBR17-76" transform="translate(262.348347 0) scale(0.996264)"/>
      <use xlink:href="#HFBR17-65" transform="translate(304.689385 0) scale(0.996264)"/>
     </g>
    </g>
   </g>
  </g>
 </g>
 <defs>
  <clipPath id="p953095f358">
   <rect x="52.355045" y="7.2" width="558" height="332.64"/>
  </clipPath>
 </defs>
</svg>
